<svg width="31" height="31" viewBox="0 0 31 31" fill="none" xmlns="http://www.w3.org/2000/svg">
<path fill-rule="evenodd" clip-rule="evenodd" d="M9.17206 0C10.8752 0 12.5289 0.47846 13.9522 1.3607C14.4589 1.30655 14.969 1.27927 15.4806 1.27927C17.3631 1.27927 19.2272 1.64884 20.9665 2.36687C22.7057 3.0849 24.2861 4.13734 25.6172 5.4641C26.9484 6.79085 28.0043 8.36594 28.7248 10.0994C29.4452 11.8329 29.816 13.6909 29.816 15.5672C29.816 16.234 29.7692 16.8984 29.6765 17.5558C29.8523 17.8678 30.0098 18.1906 30.1477 18.5225C30.6027 19.6174 30.8369 20.7908 30.8369 21.9759C30.8369 23.161 30.6027 24.3344 30.1477 25.4293C29.6927 26.5241 29.0258 27.5189 28.1851 28.3569C27.3443 29.1949 26.3462 29.8596 25.2477 30.3131C24.1492 30.7666 22.9719 31 21.7829 31C20.1541 31 18.5706 30.5626 17.1905 29.7531C16.6242 29.8209 16.0532 29.8551 15.4806 29.8551C13.598 29.8551 11.7339 29.4855 9.99463 28.7675C8.25537 28.0494 6.67505 26.997 5.34388 25.6702C4.01271 24.3435 2.95677 22.7684 2.23635 21.0349C1.51593 19.3014 1.14513 17.4435 1.14513 15.5672C1.14513 14.8646 1.19711 14.1646 1.29997 13.4728C0.533975 12.1272 0.121094 10.5953 0.121094 9.021C0.121094 6.62848 1.07468 4.33396 2.77206 2.64219C4.46945 0.950424 6.7716 0 9.17206 0ZM10.037 13.5811C10.3868 14.1799 10.8702 14.6899 11.4495 15.0712C12.2171 15.5734 13.033 15.9974 13.8851 16.337C14.8378 16.7352 15.577 17.0727 16.1026 17.3497C16.5471 17.5683 16.9505 17.8619 17.2951 18.2177C17.5559 18.4944 17.7008 18.8604 17.7002 19.2407C17.7114 19.5088 17.6586 19.7758 17.5461 20.0194C17.4336 20.2631 17.2647 20.4765 17.0533 20.6419C16.4887 21.0218 15.8132 21.2018 15.1344 21.1534C14.7506 21.1573 14.3675 21.1178 13.9926 21.0356C13.6885 20.9688 13.3911 20.8747 13.1039 20.7545C12.8525 20.6457 12.509 20.4824 12.0737 20.2647C11.7235 20.0779 11.3338 19.9777 10.937 19.9723C10.5809 19.9577 10.2328 20.0805 9.96463 20.3153C9.83673 20.4371 9.73677 20.5851 9.67165 20.7492C9.60654 20.9134 9.57781 21.0897 9.58746 21.266C9.57946 21.6003 9.68027 21.9281 9.87473 22.2001C10.1089 22.497 10.4118 22.7324 10.7572 22.8863C12.1083 23.4718 13.5729 23.7489 15.0445 23.6974C16.1154 23.719 17.1813 23.5453 18.19 23.1849C19.0269 22.8877 19.7557 22.3468 20.2825 21.6318C20.7998 20.8766 21.0619 19.9757 21.0306 19.0609C21.0507 18.3137 20.8636 17.5755 20.4902 16.9281C20.1109 16.312 19.5999 15.7877 18.9939 15.3925C18.2266 14.8975 17.4126 14.4791 16.5635 14.1432C16.4727 14.0988 16.3788 14.0611 16.2824 14.0306C15.4124 13.671 14.7579 13.3824 14.3191 13.1647C13.9273 12.981 13.5725 12.7271 13.2723 12.4155C13.0197 12.1503 12.8803 11.797 12.8838 11.4307C12.8717 11.1517 12.9347 10.8746 13.0663 10.6283C13.1979 10.382 13.3933 10.1756 13.6319 10.0306C14.1975 9.69339 14.8484 9.52689 15.5064 9.5511C16.0112 9.54581 16.5145 9.60837 17.0027 9.7371C17.533 9.89003 18.052 10.0799 18.5558 10.3054C18.7602 10.4003 18.9825 10.4503 19.2078 10.4522C19.3716 10.4565 19.5344 10.4262 19.6856 10.3631C19.8368 10.3001 19.9729 10.2058 20.0851 10.0864C20.2036 9.9568 20.2955 9.80516 20.3554 9.64009C20.4153 9.47502 20.4422 9.29977 20.4344 9.12433C20.4397 8.78664 20.3218 8.45859 20.1027 8.20157C19.8053 7.88917 19.4365 7.65371 19.028 7.51543C18.5831 7.35206 18.1231 7.23333 17.6547 7.161C17.0003 7.05366 16.3379 7.00284 15.6748 7.0091C14.6613 7.0031 13.6545 7.17266 12.6988 7.51027C11.8202 7.8069 11.0358 8.33101 10.4255 9.02927C9.83825 9.72459 9.52776 10.6119 9.55336 11.5217C9.53252 12.2385 9.69922 12.9484 10.037 13.5811Z" fill="url(#paint0_linear_15_27)"/>
<defs>
<linearGradient id="paint0_linear_15_27" x1="9.8861" y1="5.87863" x2="24.1885" y2="30.6507" gradientUnits="userSpaceOnUse">
<stop stop-color="#484040"/>
<stop offset="1"/>
</linearGradient>
</defs>
</svg>
