<svg width="31" height="31" viewBox="0 0 31 31" fill="none" xmlns="http://www.w3.org/2000/svg">
<path d="M19.2941 12.4896C19.3045 12.7059 19.1377 12.8897 18.9214 12.9002C18.7051 12.9106 18.5213 12.7438 18.5108 12.5275C18.4461 11.1875 17.8236 10.5447 16.537 10.4763C16.3208 10.4648 16.1548 10.2802 16.1663 10.064C16.1777 9.84774 16.3624 9.68176 16.5786 9.69325C18.2717 9.78319 19.2101 10.7523 19.2941 12.4896Z" fill="#333333"/>
<path d="M20.9033 13.5751C21.1198 13.58 21.2992 13.4085 21.3042 13.192C21.339 11.6595 20.88 10.3655 19.9264 9.32652C18.971 8.28568 17.6533 7.70935 15.9854 7.59092C15.7694 7.57559 15.5819 7.73825 15.5666 7.95425C15.5512 8.17025 15.7139 8.35779 15.9299 8.37312C17.4073 8.47802 18.5364 8.9719 19.3486 9.85679C20.1616 10.7424 20.5505 11.839 20.5202 13.1742C20.5153 13.3907 20.6868 13.5702 20.9033 13.5751Z" fill="#333333"/>
<path d="M23.3651 13.985C23.3668 14.2015 23.1925 14.3784 22.976 14.38C22.7595 14.3816 22.5826 14.2074 22.581 13.9908C22.5632 11.6048 21.859 9.75015 20.471 8.39307C19.0783 7.03568 17.347 6.34978 15.2667 6.33647C15.0501 6.33509 14.8757 6.15843 14.8771 5.94189C14.8785 5.72535 15.0551 5.55093 15.2717 5.55232C17.5514 5.5669 19.4779 6.33012 21.0188 7.83194C22.5652 9.34398 23.3458 11.3999 23.3651 13.985Z" fill="#333333"/>
<path d="M17.4836 17.4398C17.1905 17.8073 16.6369 17.7608 16.6369 17.7608C12.6081 16.7327 11.5289 12.6527 11.5289 12.6527C11.5289 12.6527 11.4823 12.1038 11.8499 11.8061L12.5756 11.2292C12.9384 10.9501 13.1664 10.2755 12.7989 9.61491C12.5942 9.2474 12.1848 8.59145 11.8824 8.17741C11.5614 7.74011 10.8171 6.84691 10.8124 6.84225C10.4542 6.41426 9.92388 6.31656 9.36562 6.605C9.36562 6.605 9.36097 6.60965 9.35632 6.60965C8.82598 6.90738 8.33285 7.30747 7.87229 7.81455L7.86299 7.82385C7.51873 8.23789 7.31869 8.64727 7.27217 9.04736C7.26287 9.09388 7.25822 9.15436 7.26287 9.22414C7.25822 9.40092 7.28613 9.57305 7.34195 9.74517L7.36056 9.75913C7.53269 10.3779 7.96999 11.406 8.91437 13.1226C9.52845 14.2345 10.1565 15.1649 10.7799 15.9464C11.1055 16.3605 11.4777 16.7838 11.9057 17.2165L12.0732 17.3839C12.5058 17.8119 12.9291 18.1841 13.3432 18.5098C14.1247 19.1331 15.0505 19.7612 16.167 20.3753C17.8836 21.3196 18.9118 21.7569 19.5305 21.9291L19.5445 21.9477C19.7166 22.0035 19.8887 22.0268 20.0655 22.0268C20.1353 22.0314 20.1957 22.0268 20.2423 22.0175C20.6424 21.9709 21.0517 21.7709 21.4658 21.4266L21.4751 21.4173C21.9822 20.9568 22.3822 20.459 22.68 19.9333C22.68 19.9333 22.6846 19.9287 22.6846 19.924C22.9731 19.3658 22.8754 18.8354 22.4474 18.4772C22.4474 18.4772 21.5495 17.7282 21.1122 17.4072C20.7028 17.1048 20.0422 16.7001 19.6747 16.4907C19.0141 16.1232 18.3396 16.3512 18.0604 16.714L17.4836 17.4398Z" fill="#333333"/>
<path fill-rule="evenodd" clip-rule="evenodd" d="M16.0507 0.0222519C22.9824 0.0548167 26.0946 2.31575 26.8669 3.02287C29.4209 5.24193 30.8398 10.1639 29.8861 17.9376C29.0471 24.806 24.2563 26.0245 22.6491 26.4333C22.4917 26.4734 22.3649 26.5056 22.2752 26.5347C21.8426 26.6742 18.0139 27.6326 13.0408 27.2139C12.4918 27.8512 11.7615 28.6886 11.2358 29.2562C11.077 29.4272 10.9283 29.5962 10.7862 29.7576C10.0667 30.5751 9.51623 31.2005 8.67711 30.9402C7.84438 30.6844 7.8909 29.419 7.8909 29.419L7.89556 26.2974H7.8909C0.614994 24.2505 0.721992 16.7094 0.80573 12.6807C0.884816 8.65193 1.66637 5.40475 3.88543 3.18569C7.87229 -0.470873 16.0507 0.0222519 16.0507 0.0222519ZM21.8237 24.2589C23.1897 23.9419 27.0045 23.0567 27.7089 17.3793C28.5137 10.8849 27.4112 6.45148 25.2526 4.59528C24.6013 4.00446 21.7914 2.24131 15.9251 2.2134C15.9251 2.2134 8.9795 1.75749 5.60671 4.80928C3.73191 6.66082 3.09922 9.41487 3.02944 12.7784L3.02184 13.121C2.94311 16.5606 2.80435 22.6227 8.75154 24.2737C8.75154 24.2737 8.72828 29.0422 8.72363 29.4608C8.72363 29.7539 8.77015 29.954 8.93763 29.9958C9.05858 30.0284 9.24002 29.9633 9.39353 29.8098C10.3751 28.8189 13.5246 25.0227 13.5246 25.0227C17.7487 25.3019 21.1076 24.4645 21.4704 24.3482C21.554 24.3215 21.6742 24.2936 21.8237 24.2589Z" fill="#333333"/>
</svg>
