<svg width="31" height="31" viewBox="0 0 31 31" fill="none" xmlns="http://www.w3.org/2000/svg">
<path fill-rule="evenodd" clip-rule="evenodd" d="M16.1547 31H14.8639C7.85541 31 4.3524 31 2.1762 28.8238C-1.38581e-06 26.6476 0 23.1446 0 16.1548V14.8453C0 7.85415 0 4.3524 2.1762 2.17621C4.3524 6.23614e-06 7.85541 0 14.8639 0H16.1547C23.162 0 26.6848 6.23614e-06 28.8424 2.17621C31 4.35241 31 7.85662 31 14.8453V16.3309C31.0002 23.2036 31.0002 26.6659 28.8424 28.8238C26.6662 31 23.162 31 16.1547 31ZM5.23825 9.44247C5.40317 17.5013 9.64518 22.3509 16.6351 22.3509H17.0406V17.7405C19.585 17.9985 21.4848 19.8981 22.2598 22.3509H25.9289C24.9331 18.6817 22.3515 16.6531 20.7469 15.8781C22.3515 14.9195 24.6194 12.5958 25.1539 9.44247H21.817C21.1152 12.0055 19.032 14.3293 17.0406 14.55V9.44247H13.6467V18.3866C11.5821 17.8745 8.88883 15.3623 8.77845 9.44247H5.23825Z" fill="#333333"/>
</svg>
